<svg class="icon" xmlns="http://www.w3.org/2000/svg" xmlns:xlink="http://www.w3.org/1999/xlink" fill="currentColor" version="1.1" width="24" height="24" viewBox="0 0 24 24"><defs><clipPath id="master_svg0_17_059921"><rect x="0" y="0" width="24" height="24" rx="0"/></clipPath></defs><g clip-path="url(#master_svg0_17_059921)"><g><path d="M15.5118,0.310093L14.5268,1.71302C13.7718,1.49404,12.9292,1.37402,12.007,1.37402C11.0554,1.37402,10.18846,1.50183,9.4152,1.73431C9.41125,1.72779,9.4072,1.7213,9.40303,1.71484L8.51628,0.323731C8.31922,-0.0172271,7.89695,-0.0854188,7.55914,0.119156C7.20726,0.310093,7.13688,0.719243,7.34801,1.04656L8.12316,2.26259C6.32741,3.21904,5.27129,4.85302,5.13818,6.69298L18.8759,6.69298C18.7414,4.83459,17.6654,3.18633,15.8367,2.23406L16.6801,1.03292C16.8771,0.705605,16.8067,0.310093,16.468899999999998,0.105518C16.1311,-0.085419,15.7229,-0.0172274,15.5118,0.310093ZM9.2623,5.09729C8.85412,5.09729,8.572600000000001,4.82452,8.572600000000001,4.42901C8.572600000000001,4.0335,8.85411,3.76073,9.2623,3.76073C9.67049,3.76073,9.952,4.0335,9.952,4.42901C9.952,4.76997,9.67049,5.09729,9.2623,5.09729ZM14.7517,5.09729C14.3436,5.09729,14.062,4.82452,14.062,4.42901C14.062,4.0335,14.3436,3.76073,14.7517,3.76073C15.1599,3.76073,15.4414,4.0335,15.4414,4.42901C15.4414,4.76997,15.1599,5.09729,14.7517,5.09729ZM5.13818,8.02953L5.13818,18.0128C5.13818,18.7493,5.75751,19.3494,6.51758,19.3494L7.86884,19.3494L7.86884,22.6635C7.86884,23.3999,8.48816,24,9.24824,24C10.00832,24,10.62764,23.3999,10.62764,22.6635L10.62764,19.3494L13.3724,19.3494L13.3724,22.6635C13.3724,23.3999,13.9917,24,14.7518,24C15.5118,24,16.1312,23.3999,16.1312,22.6635L16.1312,19.3494L17.4965,19.3494C18.2565,19.3494,18.8759,18.7493,18.8759,18.0128L18.8759,8.02953L5.13818,8.02953ZM2.3794,16.6899C3.13948,16.6899,3.7588,16.0898,3.7588,15.3533L3.7588,9.3661C3.7588,8.62963,3.13948,8.02954,2.3794,8.02954C1.619322,8.02954,1,8.62963,1,9.3661L1,15.3533C1,16.0898,1.619322,16.6899,2.3794,16.6899ZM21.6206,16.6899C22.3807,16.6899,23,16.0898,23,15.3533L23,9.3661C23,8.62963,22.3807,8.02954,21.6206,8.02954C20.8605,8.02954,20.2412,8.62963,20.2412,9.3661L20.2412,15.3533C20.2412,16.0898,20.8605,16.6899,21.6206,16.6899Z" fill-rule="evenodd" fill-opacity="1"/></g></g></svg>