<svg class="icon" xmlns="http://www.w3.org/2000/svg" xmlns:xlink="http://www.w3.org/1999/xlink" fill="currentColor" version="1.1" width="24" height="24" viewBox="0 0 24 24"><defs><clipPath id="master_svg0_17_060061"><rect x="0" y="0" width="24" height="24" rx="0"/></clipPath></defs><g clip-path="url(#master_svg0_17_060061)"><g><path d="M18.7057,12.2211C18.7393,15.7005,21.9629,16.8562,22,16.8735C21.9707,16.9518,21.4835,18.523,20.2989,20.1451C19.2744,21.5459,18.2141,22.9409,16.5408,22.969C14.8954,22.9984,14.3668,22.0555,12.4856,22.0555C10.60516,22.0555,10.01789,22.9409,8.4618,22.9985C6.84787,23.056,5.61753,21.4863,4.58446,20.0891C2.4739459999999998,17.2329,0.86215,12.0185,3.02839,8.49965C4.10219,6.75172,6.02337,5.64489,8.10957,5.61541C9.695630000000001,5.58878,11.19386,6.61731,12.1619,6.61731C13.1329,6.61731,14.9526,5.38182,16.8645,5.56293C17.665399999999998,5.59383,19.9137,5.86477,21.3562,7.84061C21.2426,7.91031,18.6735,9.30753,18.7056,12.2212L18.7057,12.2211ZM11.96906,5.30059C11.78259,3.97884,12.4777,2.60464,13.2722,1.74149C14.1589,0.76907,15.6549,0.0460066,16.8902,0C17.048099999999998,1.34689,16.4687,2.6988,15.612,3.67198C14.754,4.64367,13.3472,5.40051,11.96906,5.30059Z" fill-opacity="1"/></g></g></svg>