<svg class="icon" xmlns="http://www.w3.org/2000/svg" xmlns:xlink="http://www.w3.org/1999/xlink" fill="currentColor" version="1.1" width="16" height="16" viewBox="0 0 16 16"><defs><clipPath id="master_svg0_17_059797"><rect x="0" y="0" width="16" height="16" rx="0"/></clipPath></defs><g clip-path="url(#master_svg0_17_059797)"><g><path d="M14.8875,10.445068359375C14.5526,10.452983859375,14.2829,10.722627359375,14.275,11.057568359375C14.275,12.405068359375,13.375,13.510068359375,12.23,13.510068359375L3.77,13.510068359375C2.625,13.500068359375,1.725,12.405068359375,1.725,11.057568359375C1.71709,10.722626359375,1.447441,10.452982899375,1.1125,10.445068359375C0.777559,10.452983859375,0.50791502,10.722627359375,0.5,11.057568359375C0.5,13.100068359375,1.9725,14.735068359375,3.77,14.735068359375L12.23,14.735068359375C14.0275,14.735068359375,15.5,13.100068359375,15.5,11.057568359375C15.4921,10.722626359375,15.2224,10.452982899375,14.8875,10.445068359375Z" fill-opacity="1"/></g><g><path d="M7.570004680175781,10.7299896875C7.830974680175782,10.9463796875,8.209024680175782,10.9463796875,8.470004680175782,10.7299896875L10.800004680175782,8.3999896875C11.012534680175781,8.1594696875,11.001294680175782,7.7951096875,10.77433468017578,7.5681496875C10.547374680175782,7.3411896875,10.18301468017578,7.3299496875,9.94249468017578,7.5424896875L8.675004680175782,8.8099896875L8.675004680175782,1.8599866875C8.654324680175781,1.5362076875,8.385684680175782,1.2841796875,8.06124468017578,1.2841796875C7.736814680175781,1.2841796875,7.468174680175782,1.5362076875,7.447504680175781,1.8599866875L7.447504680175781,8.8099896875L6.180004680175781,7.5424896875C5.939479680175781,7.3299496875,5.5751266801757815,7.3411996875,5.348168680175781,7.5681596875C5.121210580175782,7.7951096875,5.109967280175781,8.1594696875,5.322499680175781,8.3999896875L7.570004680175781,10.7299896875Z" fill-opacity="1"/></g></g></svg>