<svg class="icon" xmlns="http://www.w3.org/2000/svg" xmlns:xlink="http://www.w3.org/1999/xlink" fill="currentColor"
  version="1.1" width="24" height="24" viewBox="0 0 24 24">
  <defs>
    <clipPath id="master_svg0_17_059907">
      <rect x="0" y="0" width="24" height="24" rx="0" />
    </clipPath>
  </defs>
  <g clip-path="url(#master_svg0_17_059907)">
    <g>
      <path
        d="M5.2661023046875,9.76497C6.2258223046875,6.86139,8.942002304687499,4.9027,12.0001123046875,4.90899C13.6901123046875,4.90899,15.2181123046875,5.50898,16.4181123046875,6.49098L19.9100123046875,2.99999C17.7821123046875,1.145,15.0551123046875,0,12.0001123046875,0C7.2700923046875,0,3.1981023046874997,2.69799,1.2401123046875,6.64998L5.2661023046875,9.76497Z"
        fill-opacity="1" />
    </g>
    <g>
      <path
        d="M16.04012158203125,18.01305640625C14.95012158203125,18.71605640625,13.56612158203125,19.09105640625,12.00012158203125,19.09105640625C8.95482158203125,19.09730640625,6.24701158203125,17.15475640625,5.27711158203125,14.26806640625L1.23712158203125,17.33505640625C3.25921158203125,21.42832640625,7.43461158203125,24.01395640625,12.00012158203125,24.00003640625C14.93312158203125,24.00003640625,17.73502158203125,22.957036406249998,19.83402158203125,21.00004640625L16.041121582031252,18.01305640625L16.04012158203125,18.01305640625Z"
        fill-opacity="1" />
    </g>
    <g>
      <path
        d="M19.834056293945313,21.000115234375002C22.029076293945312,18.952085234374998,23.454076293945313,15.904095234375,23.454076293945313,12.000105234374999C23.454076293945313,11.290115234375,23.34507629394531,10.527113234375,23.182076293945315,9.818115234375L12.000076293945312,9.818115234375L12.000076293945312,14.455105234375L18.436056293945313,14.455105234375C18.119056293945313,16.015095234375,17.26605629394531,17.221095234375,16.041066293945313,18.013095234375L19.834056293945313,21.000115234375002Z"
        fill-opacity="1" />
    </g>
    <g>
      <path
        d="M5.2771,14.26788234375C5.03246,13.536792343750001,4.90817,12.77082234375,4.9091,11.99988234375C4.9091,11.21789234375,5.0341,10.46689234375,5.2661,9.76489234375L1.24011,6.64990234375C0.416493,8.31258234375,-0.00808014,10.14441234375,0.000116334,11.99988234375C0.000116334,13.91988234375,0.445115,15.72987234375,1.23711,17.334902343750002L5.2771,14.26788234375Z"
        fill-opacity="1" />
    </g>
  </g>
</svg>